<?xml version="1.0" encoding="utf-8"?>
<!-- Generator: Adobe Illustrator 28.1.0, SVG Export Plug-In . SVG Version: 6.00 Build 0)  -->
<svg version="1.1" id="Layer_1" xmlns="http://www.w3.org/2000/svg" xmlns:xlink="http://www.w3.org/1999/xlink" x="0px" y="0px"
	 viewBox="0 0 512 512" style="enable-background:new 0 0 512 512;" xml:space="preserve">
<style type="text/css">
	.st0{fill:#2563EB;}
</style>
<path class="st0" d="M0,405.33C0,464.15,47.85,512,106.67,512h298.67C464.15,512,512,464.15,512,405.33v-192H0V405.33z M64,320
	c0-23.53,19.14-42.67,42.67-42.67h42.67c23.53,0,42.67,19.14,42.67,42.67v42.67c0,23.53-19.14,42.67-42.67,42.67h-42.67
	C83.14,405.33,64,386.2,64,362.67V320z M149.35,362.67h-42.69V320h42.67v42.67H149.35z M512,149.33v21.33H0v-21.33
	C0,90.52,47.85,42.67,106.67,42.67H128V21.33C128,9.56,137.56,0,149.33,0s21.33,9.56,21.33,21.33v21.33h170.67V21.33
	C341.33,9.56,350.89,0,362.67,0S384,9.56,384,21.33v21.33h21.33C464.15,42.67,512,90.52,512,149.33z"/>
</svg>
