<?xml version="1.0" encoding="utf-8"?>
<!-- Generator: Adobe Illustrator 28.1.0, SVG Export Plug-In . SVG Version: 6.00 Build 0)  -->
<svg version="1.1" id="Layer_1" xmlns="http://www.w3.org/2000/svg" xmlns:xlink="http://www.w3.org/1999/xlink" x="0px" y="0px"
	 viewBox="0 0 30 30" style="enable-background:new 0 0 30 30;" xml:space="preserve">
<style type="text/css">
	.st0{fill:#2563EB;}
</style>
<path class="st0" d="M6.52,29.35H0V9.78h6.52V29.35z M3.26,7.17C1.46,7.17,0,5.71,0,3.91s1.46-3.26,3.26-3.26s3.26,1.46,3.26,3.26
	S5.06,7.17,3.26,7.17z M30,29.35h-6.27v-9.52c0-2.27-0.04-5.19-3.26-5.19c-3.26,0-3.77,2.47-3.77,5.03v9.69h-6.27V9.77h6.02v2.68
	h0.08c0.84-1.54,2.88-3.16,5.94-3.16c6.35,0,7.53,4.06,7.53,9.33C30,18.61,30,29.35,30,29.35z"/>
</svg>
