<?xml version="1.0" encoding="utf-8"?>
<!-- Generator: Adobe Illustrator 28.1.0, SVG Export Plug-In . SVG Version: 6.00 Build 0)  -->
<svg version="1.1" id="Layer_1" xmlns="http://www.w3.org/2000/svg" xmlns:xlink="http://www.w3.org/1999/xlink" x="0px" y="0px"
	 viewBox="0 0 508.61 94.41" style="enable-background:new 0 0 508.61 94.41;" xml:space="preserve">
<style type="text/css">
	.st0{fill:#172554;}
</style>
<g>
	<path class="st0" d="M55.48,92.05v-7.46h-0.25c-3.86,6.34-10.82,9.7-20.65,9.7C13.68,94.29,0,78.24,0,57.34
		c0-20.65,14.06-36.7,34.21-36.7c7.96,0,14.43,2.36,20.28,8.21V0h20.65v92.05H55.48z M55.6,57.22c0-9.58-7.34-17.29-17.54-17.29
		c-9.7,0-17.41,7.21-17.41,17.29c0,10.45,7.34,17.79,17.29,17.79C48.01,75.01,55.6,67.42,55.6,57.22z"/>
	<path class="st0" d="M178.5,92.05V54.86c0-10.82-3.48-14.8-10.57-14.8c-7.84,0-11.44,4.73-11.44,13.81v38.19h-20.65V53.99
		c0-8.96-3.23-13.93-10.32-13.93c-8.09,0-11.69,5.22-11.69,14.8v37.19H93.17V23.01h19.28v7.34h0.25c3.61-6.47,10.2-9.7,19.03-9.7
		c8.96,0,15.55,4.48,19.9,12.31c4.98-7.84,12.44-12.31,21.89-12.31c15.42,0,25.62,9.45,25.62,28.73v42.67H178.5z"/>
	<path class="st0" d="M216.81,92.05V0h20.65v28.49c5.47-5.85,12.44-7.84,19.65-7.84c17.91,0,34.33,13.43,34.33,36.45
		c0,21.27-13.56,37.32-34.83,37.32c-8.33,0-16.67-3.86-19.78-9.7h-0.25v7.34H216.81z M270.79,57.47c0-9.2-7.09-17.54-17.04-17.54
		c-9.58,0-17.04,7.84-17.04,17.41c0,10.2,7.21,17.79,16.79,17.79C263.21,75.13,270.79,67.42,270.79,57.47z"/>
	<path class="st0" d="M305.99,92.05V23.01h19.41v7.34h0.25c3.61-7.34,9.33-9.7,17.29-9.7v20.77c-12.31,0.12-16.29,4.73-16.29,12.56
		v38.06H305.99z"/>
	<path class="st0" d="M405.26,92.05v-7.46h-0.25c-2.99,6.09-11.2,9.83-20.28,9.83c-20.4,0-34.58-16.05-34.58-36.94
		c0-20.4,14.8-36.82,34.58-36.82c8.46,0,16.29,3.36,20.28,9.7h0.25v-7.34h20.65v69.04H405.26z M405.26,57.47
		c0-9.7-7.84-17.54-17.54-17.54c-9.45,0-16.92,7.84-16.92,17.79c0,9.58,7.59,17.41,17.17,17.41
		C397.67,75.13,405.26,67.42,405.26,57.47z"/>
	<path class="st0" d="M443.94,92.05V23.01h19.41v7.34h0.25c3.61-7.34,9.33-9.7,17.29-9.7v20.77c-12.31,0.12-16.29,4.73-16.29,12.56
		v38.06H443.94z"/>
	<circle class="st0" cx="496.61" cy="80.05" r="12"/>
</g>
</svg>
