<?xml version="1.0" encoding="utf-8"?>
<!-- Generator: Adobe Illustrator 28.1.0, SVG Export Plug-In . SVG Version: 6.00 Build 0)  -->
<svg version="1.1" id="Filled" xmlns="http://www.w3.org/2000/svg" xmlns:xlink="http://www.w3.org/1999/xlink" x="0px" y="0px"
	 viewBox="0 0 512 512" style="enable-background:new 0 0 512 512;" xml:space="preserve">
<style type="text/css">
	.st0{fill:#2563EB;}
</style>
<path class="st0" d="M511.02,118.23L331.43,297.81c-41.69,41.59-109.18,41.59-150.87,0L0.98,118.23C0.68,121.6,0,124.65,0,128v256
	c0.07,58.88,47.79,106.6,106.67,106.67h298.67C464.21,490.6,511.93,442.88,512,384V128C512,124.65,511.32,121.6,511.02,118.23z"/>
<path class="st0" d="M301.27,267.65L496.13,72.77c-19.2-31.83-53.62-51.33-90.79-51.43H106.67c-37.17,0.1-71.6,19.6-90.79,51.43
	l194.86,194.88C235.76,292.58,276.24,292.58,301.27,267.65z"/>
</svg>
