<?xml version="1.0" encoding="utf-8"?>
<!-- Generator: Adobe Illustrator 28.1.0, SVG Export Plug-In . SVG Version: 6.00 Build 0)  -->
<svg version="1.1" id="Layer_1" xmlns="http://www.w3.org/2000/svg" xmlns:xlink="http://www.w3.org/1999/xlink" x="0px" y="0px"
	 viewBox="0 0 512 512" style="enable-background:new 0 0 512 512;" xml:space="preserve">
<style type="text/css">
	.st0{fill:#2563EB;}
</style>
<path class="st0" d="M512,133.12C512,296.11,295.89,512,133.12,512c-35.63,0-68.91-13.44-93.44-37.97l-21.33-24.53
	c-24.75-24.75-24.75-66.56,1.07-92.37c0.64-0.64,52.05-40.11,52.05-40.11c25.6-24.32,65.92-24.32,91.31,0l31.15,24.96
	c68.27-29.01,116.69-77.65,147.84-148.27l-24.75-31.15c-24.53-25.39-24.53-65.92,0-91.31c0,0,39.47-51.41,40.11-52.05
	c25.81-25.81,67.63-25.81,93.44,0l22.4,19.41C498.56,64,512,97.28,512,132.91L512,133.12z"/>
</svg>
